<svg xmlns="http://www.w3.org/2000/svg" viewBox="0 0 108 108" role="img" aria-label="Claude">
  <rect width="108" height="108" fill="#D97757"/>
  <g fill="#FAF9F5" transform="translate(54 54)">
    <rect x="-3" y="-36" width="6" height="22" rx="3" transform="rotate(0)"/>
    <rect x="-3" y="-36" width="6" height="22" rx="3" transform="rotate(30)"/>
    <rect x="-3" y="-36" width="6" height="22" rx="3" transform="rotate(60)"/>
    <rect x="-3" y="-36" width="6" height="22" rx="3" transform="rotate(90)"/>
    <rect x="-3" y="-36" width="6" height="22" rx="3" transform="rotate(120)"/>
    <rect x="-3" y="-36" width="6" height="22" rx="3" transform="rotate(150)"/>
    <rect x="-3" y="-36" width="6" height="22" rx="3" transform="rotate(180)"/>
    <rect x="-3" y="-36" width="6" height="22" rx="3" transform="rotate(210)"/>
    <rect x="-3" y="-36" width="6" height="22" rx="3" transform="rotate(240)"/>
    <rect x="-3" y="-36" width="6" height="22" rx="3" transform="rotate(270)"/>
    <rect x="-3" y="-36" width="6" height="22" rx="3" transform="rotate(300)"/>
    <rect x="-3" y="-36" width="6" height="22" rx="3" transform="rotate(330)"/>
  </g>
</svg>
